# AST/ASF file generated using VICON BodyLanguage
# -----------------------------------------------
:version 1.10
:name VICON
:units
  mass 1.0
  length 0.45
  angle deg
:documentation
   .ast/.asf automatically generated from VICON data using
   VICON BodyBuilder and BodyLanguage model FoxedUp or BRILLIANT.MOD
:root
   order TX TY TZ RX RY RZ
   axis XYZ
   position 0 0 0  
   orientation 0 0 0 
:bonedata
  begin
     id 1 
     name lhipjoint
     direction 0.521689 -0.742065 0.420928 
     length 2.47002 
     axis 0 0 0  XYZ
  end
  begin
     id 2 
     name lfemur
     direction 0.34202 -0.939693 0  
     length 7.24654  
     axis 0 0 20  XYZ
    dof rx ry rz
    limits (-160.0 20.0)
           (-70.0 70.0)
           (-60.0 70.0)
  end
  begin
     id 3 
     name ltibia
     direction 0.34202 -0.939693 0   
     length 8.04849   
     axis 0 0 20   XYZ
    dof rx
    limits (-10.0 170.0)
  end
  begin
     id 4 
     name lfoot
     direction 0.0745411 -0.2048 0.975961   
     length 1.72367   
     axis -90 7.62852e-016 20   XYZ
    dof rx rz
    limits (-45.0 90.0)
           (-70.0 20.0)
  end
  begin
     id 5 
     name ltoes
     direction 1.53556e-011 -4.21901e-011 1   
     length 0.87311   
     axis -90 7.62852e-016 20   XYZ
    dof rx
    limits (-90.0 20.0)
  end
  begin
     id 6 
     name rhipjoint
     direction -0.52849 -0.738415 0.418857   
     length 2.48223  
     axis 0 0 0  XYZ 
  end
  begin
     id 7 
     name rfemur
     direction -0.34202 -0.939693 0   
     length 7.15571   
     axis 0 0 -20   XYZ
    dof rx ry rz
    limits (-160.0 20.0)
           (-70.0 70.0)
           (-70.0 60.0)
  end
  begin
     id 8 
     name rtibia
     direction -0.34202 -0.939693 0   
     length 7.81659   
     axis 0 0 -20   XYZ
    dof rx
    limits (-10.0 170.0)
 end
 begin
     id 9 
     name rfoot
     direction -0.0917348 -0.252039 0.963359   
     length 1.84382  
     axis -90 -7.62852e-016 -20   XYZ
    dof rx rz
    limits (-45.0 90.0)
           (-20.0 70.0)
  end
  begin
     id 10 
     name rtoes
     direction -1.53551e-011 -4.21879e-011 1   
     length 0.927771   
     axis -90 -7.62852e-016 -20   XYZ
    dof rx
    limits (-90.0 20.0)
  end
  begin
     id 11 
     name lowerback
     direction 0.00583058 0.999822 0.0179296   
     length 2.1429   
     axis 0 0 0   XYZ
    dof rx ry rz
    limits (-20.0 45.0)
           (-30.0 30.0)
           (-30.0 30.0)
  end
  begin
     id 12 
     name upperback
     direction -0.0137999 0.999752 -0.0175071   
     length 2.14252   
     axis 0 0 0   XYZ
    dof rx ry rz
    limits (-20.0 45.0)
           (-30.0 30.0)
           (-30.0 30.0)
  end
  begin
     id 13 
     name thorax
     direction -0.0158036 0.99955 -0.0254909   
     length 2.1383   
     axis 0 0 0   XYZ
    dof rx ry rz
    limits (-20.0 45.0)
           (-30.0 30.0)
           (-30.0 30.0)
  end
  begin
     id 14 
     name lowerneck
     direction -0.0101179 0.999403 -0.0330262   
     length 1.65808   
     axis 0 0 0   XYZ
    dof rx ry rz
    limits (-20.0 45.0)
           (-30.0 30.0)
           (-30.0 30.0)
  end
  begin
     id 15 
     name upperneck
     direction 0.0497734 0.995978 -0.074501   
     length 1.5897   
     axis 0 0 0   XYZ
    dof rx ry rz
    limits (-20.0 45.0)
           (-30.0 30.0)
           (-30.0 30.0)
  end
  begin
     id 16
     name head
     direction 0.0189524 0.999519 -0.0245438  
     length 1.74024  
     axis 0 0 0   XYZ
    dof rx ry rz
    limits (-20.0 45.0)
           (-30.0 30.0)
           (-30.0 30.0)
  end
  begin
     id 17 
     name lclavicle
     direction 0.945604 0.324422 0.0241537  
     length 3.59089  
     axis 0 0 0   XYZ
    dof ry rz
    limits (-20.0 10.0)
           (0.0 20.0)
  end
  begin
     id 18 
     name lhumerus
     direction 1 -4.48964e-011 -2.63524e-027   
     length 5.2391   
     axis 180 -30 -90   XYZ
    dof rx ry rz
    limits (-60.0 90.0)
           (-90.0 90.0)
           (-90.0 90.0)
  end
  begin
     id 19
     name lradius
     direction 1 -4.48969e-011 3.86978e-028   
     length 3.31467   
     axis 180 -30 -90   XYZ
    dof rx
    limits (-10.0 170.0)
  end
  begin
     id 20
     name lwrist
     direction 1 -4.48963e-011 7.20928e-028   
     length 1.65734   
     axis -5.52449e-016 90 90   XYZ
    dof ry
    limits (-180.0 0.0)
 end
  begin
     id 21 
     name lhand
     direction 1 -4.48964e-011 1.44186e-027   
     length 0.9659   
     axis -9.20027e-016 90 90   XYZ
    dof rx rz
    limits (-90.0 90.0)
           (-45.0 45.0)
  end
  begin
     id 22 
     name lfingers
     direction 1 -4.48965e-011 2.88371e-027   
     length 0.778733   
     axis -1.84005e-015 90 90   XYZ
    dof rx
    limits (0.0 90.0)
  end
  begin
     id 23
     name lthumb
     direction 0.707107 -6.34931e-011 0.707107   
     length 1.11811   
     axis -90 45 2.85299e-015   XYZ
    dof rx rz
    limits (-45.0 45.0)
           (-45.0 45.0)
  end
  begin
     id 24 
     name rclavicle
     direction -0.923762 0.370785 0.0958234   
     length 3.54196  
     axis 0 0 0   XYZ 
    dof ry rz
    limits (-10.0 20.0)
           (-20.0 0.0)
  end
  begin
     id 25 
     name rhumerus
     direction -1 -4.48966e-011 1.18702e-017  
     length 5.30252   
     axis 180 30 90   XYZ
    dof rx ry rz
    limits (-90.0 60.0)
           (-90.0 90.0)
           (-90.0 90.0)
  end
  begin
     id 26 
     name rradius
     direction -1 -4.48966e-011 4.46736e-027   
     length 3.67875   
     axis 180 30 90   XYZ
    dof rx
    limits (-10.0 170.0)
  end
  begin
     id 27 
     name rwrist
     direction -1 -4.48966e-011 7.20928e-028   
     length 1.83937   
     axis -5.52449e-016 -90 -90   XYZ
    dof ry
    limits (-180.0 0.0)
  end
  begin
     id 28
     name rhand
     direction -1 -4.48973e-011 1.44186e-027   
     length 0.594811   
     axis -9.20027e-016 -90 -90   XYZ
    dof rx rz
    limits (-90.0 90.0)
           (-45.0 45.0)
  end
  begin
     id 29
     name rfingers
     direction -1 -4.48963e-011 2.88371e-027   
     length 0.479552   
     axis -1.84005e-015 -90 -90   XYZ
    dof rx
    limits (0.0 90.0)
  end
  begin
     id 30
     name rthumb
     direction -0.707107 -6.34932e-011 0.707107   
     length 0.688544   
     axis -90 -45 -2.85299e-015   XYZ
    dof rx rz
    limits (-45.0 45.0)
           (-45.0 45.0)
  end
:hierarchy
  begin
    root lhipjoint rhipjoint lowerback
    lhipjoint lfemur
    lfemur ltibia
    ltibia lfoot
    lfoot ltoes
    rhipjoint rfemur
    rfemur rtibia
    rtibia rfoot
    rfoot rtoes
    lowerback upperback
    upperback thorax
    thorax lowerneck lclavicle rclavicle
    lowerneck upperneck
    upperneck head
    lclavicle lhumerus
    lhumerus lradius
    lradius lwrist
    lwrist lhand lthumb
    lhand lfingers
    rclavicle rhumerus
    rhumerus rradius
    rradius rwrist
    rwrist rhand rthumb
    rhand rfingers
  end

#!OML:ASF E:\acrobat2\Project_11_07_03\Capture day 1\Session 1\Acrobat.ASF
:FULLY-SPECIFIED
:DEGREES
153
root 9.68185 17.248 29.7604 -177.414 -2.06025 -177.047
lowerback -9.64698 0.662572 2.03473
upperback -2.12467 0.518602 -0.280425
thorax 3.22266 0.201878 -1.37632
lowerneck 4.89685 -2.24065 -1.56356
upperneck -5.96684 -2.92646 3.99759
head -2.67124 -1.58327 1.674
rclavicle 9.44227e-016 3.57812e-015
rhumerus -42.7402 17.595 -97.4504
rradius 27.3695
rwrist 6.49249
rhand 4.53627 -38.0708
rfingers 7.12502
rthumb 29.9276 -65.6712
lclavicle 9.44227e-016 3.57812e-015
lhumerus -37.2995 -24.8981 98.2546
lradius 21.9719
lwrist 6.59184
lhand 5.19066 -16.8933
lfingers 7.12502
lthumb 30.5518 10.5926
rfemur 15.427 28.3061 10.8016
rtibia -5.69835
rfoot -50.3728 -34.5009
rtoes 22.2962
lfemur 10.7812 -15.9609 3.50752
ltibia -6.1856
lfoot -40.7406 -1.5555
ltoes 54.7904
154
root 9.68161 17.2468 29.7526 -177.395 -2.08678 -177.133
lowerback -9.65743 0.65889 1.94134
upperback -2.17975 0.520453 -0.322837
thorax 3.17092 0.199349 -1.36765
lowerneck 4.94882 -2.28814 -1.62194
upperneck -5.95271 -2.98879 4.11397
head -2.67245 -1.61757 1.72553
rclavicle -5.46658e-016 -3.97569e-015
rhumerus -42.8442 17.5558 -97.4826
rradius 27.3834
rwrist 6.39221
rhand 4.56057 -38.1955
rfingers 7.12502
rthumb 29.9507 -65.7917
lclavicle -5.46658e-016 -3.97569e-015
lhumerus -37.4622 -25.082 98.3345
lradius 22.0556
lwrist 6.70649
lhand 5.29403 -16.8029
lfingers 7.12502
lthumb 30.6504 10.6646
rfemur 15.5084 28.4268 10.7673
rtibia -5.75352
rfoot -50.5908 -34.5484
rtoes 22.2863
lfemur 10.7841 -15.9012 3.43319
ltibia -6.1976
lfoot -40.6766 -1.65248
ltoes 54.8236
155
root 9.67976 17.2465 29.7467 -177.38 -1.99861 -177.203
lowerback -9.80044 0.685278 1.90296
upperback -2.1061 0.561171 -0.372617
thorax 3.32817 0.222937 -1.39166
lowerneck 4.87168 -2.30641 -1.56208
upperneck -5.98829 -3.00995 4.12154
head -2.66988 -1.63053 1.71719
rclavicle -1.78906e-015 -1.59028e-015
rhumerus -42.7645 17.6096 -97.4971
rradius 27.4094
rwrist 6.33403
rhand 4.77666 -38.5439
rfingers 7.12502
rthumb 30.1569 -66.1027
lclavicle -1.78906e-015 -1.59028e-015
lhumerus -37.3207 -25.1971 98.2248
lradius 22.0863
lwrist 6.82475
lhand 5.61955 -16.7428
lfingers 7.12502
lthumb 30.9607 10.6661
rfemur 15.4067 28.1973 10.5474
rtibia -5.72568
rfoot -49.9485 -34.8172
rtoes 21.1893
lfemur 10.8844 -15.9588 3.29085
ltibia -6.26282
lfoot -40.8335 -1.76227
ltoes 54.8638
156
root 9.67951 17.2483 29.7437 -177.399 -1.92176 -177.205
lowerback -9.76674 0.717873 1.91558
upperback -2.10163 0.605844 -0.399601
thorax 3.31628 0.245616 -1.42132
lowerneck 4.77177 -2.28433 -1.52736
upperneck -5.93003 -2.9801 4.10314
head -2.63318 -1.6147 1.70044
rclavicle -6.55989e-015 -5.96354e-015
rhumerus -42.7053 17.4789 -97.4298
rradius 27.3421
rwrist 6.40058
rhand 4.94768 -38.5186
rfingers 7.12502
rthumb 30.3201 -66.0474
lclavicle -6.55989e-015 -5.96354e-015
lhumerus -37.2964 -25.655 98.3747
lradius 21.944
lwrist 7.27093
lhand 5.6508 -16.729
lfingers 7.12502
lthumb 30.9905 10.6742
rfemur 15.3558 28.0845 10.4865
rtibia -5.6888
rfoot -49.6185 -34.8613
rtoes 20.6984
lfemur 10.9617 -16 3.23328
ltibia -6.27094
lfoot -40.9084 -1.76171
ltoes 54.8446
157
root 9.68159 17.2496 29.7397 -177.459 -1.94166 -177.115
lowerback -9.60232 0.714785 1.97367
upperback -2.17644 0.595937 -0.377487
thorax 3.14762 0.237528 -1.43354
lowerneck 4.79203 -2.20678 -1.58304
upperneck -5.8599 -2.87768 4.14979
head -2.61575 -1.56312 1.72105
rclavicle -2.5842e-015 2.78299e-015
rhumerus -42.8053 17.3382 -97.3704
rradius 27.2943
rwrist 6.43349
rhand 5.07999 -38.2564
rfingers 7.12502
rthumb 30.4463 -65.762
lclavicle -2.5842e-015 2.78299e-015
lhumerus -37.4565 -25.8943 98.5384
lradius 21.8925
lwrist 7.51481
lhand 5.3602 -16.7992
lfingers 7.12502
lthumb 30.7135 10.6565
rfemur 15.5367 28.4196 10.7954
rtibia -5.70556
rfoot -50.4527 -34.4357
rtoes 22.0915
lfemur 10.9581 -15.8919 3.38522
ltibia -6.19642
lfoot -40.7208 -1.51505
ltoes 54.7034
158
root 9.68292 17.2476 29.7351 -177.481 -1.93768 -176.947
lowerback -9.52819 0.704797 2.10616
upperback -2.23577 0.565606 -0.312528
thorax 3.04457 0.220095 -1.44513
lowerneck 4.7351 -2.24161 -1.66778
upperneck -5.64026 -2.92824 4.22402
head -2.52835 -1.58542 1.756
rclavicle 1.44119e-015 1.31198e-014
rhumerus -42.943 17.4362 -97.4106
rradius 27.2967
rwrist 6.34333
rhand 5.09983 -38.126
rfingers 7.12502
rthumb 30.4652 -65.6281
lclavicle 1.44119e-015 1.31198e-014
lhumerus -37.5822 -25.9651 98.6067
lradius 21.9097
lwrist 7.63835
lhand 5.29811 -16.8957
lfingers 7.12502
lthumb 30.6543 10.5711
rfemur 15.6309 28.6469 11.114
rtibia -5.69377
rfoot -50.91 -34.2652
rtoes 22.8209
lfemur 10.9622 -15.7986 3.64465
ltibia -6.18504
lfoot -40.5977 -1.42635
ltoes 54.7499
